<svg xmlns="http://www.w3.org/2000/svg" width="256" height="256" viewBox="0 0 100 100"><rect width="100" height="100" rx="50" fill="#ffffff"></rect><path d="M23.28 22L33.20 22L33.20 66Q33.20 71.92 30.12 74.96Q27.04 78 21.36 78L21.36 78Q20.16 78 18.40 77.88Q16.64 77.76 15.04 77.44Q13.44 77.12 12.40 76.72L12.40 76.72L13.52 70L17.44 70Q23.28 70 23.28 64.88L23.28 64.88L23.28 22ZM75.68 22L86.56 22L71.44 44.48Q70.64 45.76 69.76 46.68Q68.88 47.60 67.84 48.40L67.84 48.40L67.84 48.64Q68.96 49.44 70.08 50.56Q71.20 51.68 71.92 52.96L71.92 52.96L87.60 77.20L76.40 77.20L58.24 48.32L75.68 22ZM45.36 22L55.36 22L55.36 38.32Q55.36 40.88 55 43.36Q54.64 45.84 53.92 48.32L53.92 48.32Q54.48 50.64 54.92 53.08Q55.36 55.52 55.36 57.76L55.36 57.76L55.36 77.20L45.36 77.20L45.36 22ZM52.16 44.80L62.40 44.80L62.40 52.08L52.16 52.08L52.16 44.80Z" fill="#5050cc"></path></svg>