<svg xmlns="http://www.w3.org/2000/svg" width="256" height="256" viewBox="0 0 100 100"><rect width="100" height="100" rx="50" fill="#ffffff"></rect><path d="M16.60 15L29 15L29 70Q29 77.40 25.15 81.20Q21.30 85 14.20 85L14.20 85Q12.70 85 10.50 84.85Q8.30 84.70 6.30 84.30Q4.30 83.90 3 83.40L3 83.40L4.40 75L9.30 75Q16.60 75 16.60 68.60L16.60 68.60L16.60 15ZM82.10 15L95.70 15L76.80 43.10Q75.80 44.70 74.70 45.85Q73.60 47 72.30 48L72.30 48L72.30 48.30Q73.70 49.30 75.10 50.70Q76.50 52.10 77.40 53.70L77.40 53.70L97 84L83 84L60.30 47.90L82.10 15ZM44.20 15L56.70 15L56.70 35.40Q56.70 38.60 56.25 41.70Q55.80 44.80 54.90 47.90L54.90 47.90Q55.60 50.80 56.15 53.85Q56.70 56.90 56.70 59.70L56.70 59.70L56.70 84L44.20 84L44.20 15ZM52.70 43.50L65.50 43.50L65.50 52.60L52.70 52.60L52.70 43.50Z" fill="#5050cc"></path></svg>